HIERARCHY
ROOT Hips
{
    OFFSET 10.92974853515625 89.33444213867188 -17.970176696777344
    CHANNELS 6 Xposition Yposition Zposition Zrotation Xrotation Yrotation
    JOINT RightUpLeg
    {
        OFFSET -10.92974853515625 0.0 0.0
        CHANNELS 3 Zrotation Xrotation Yrotation
        JOINT RightLeg
        {
            OFFSET 0.0 -44.40900421142578 0.0
            CHANNELS 3 Zrotation Xrotation Yrotation
            JOINT RightFoot
            {
                OFFSET 0.0 -44.925437927246094 0.0
                CHANNELS 3 Zrotation Xrotation Yrotation
                End Site
                {
                    OFFSET 0.0 0.0 17.970176696777344
                }
            }
        }
    }
    JOINT LeftUpLeg
    {
        OFFSET 10.92974853515625 0.0 0.0
        CHANNELS 3 Zrotation Xrotation Yrotation
        JOINT LeftLeg
        {
            OFFSET 0.0 -44.40900421142578 0.0
            CHANNELS 3 Zrotation Xrotation Yrotation
            JOINT LeftFoot
            {
                OFFSET 0.0 -44.925437927246094 0.0
                CHANNELS 3 Zrotation Xrotation Yrotation
                End Site
                {
                    OFFSET 0.0 0.0 17.970176696777344
                }
            }
        }
    }
    JOINT Spine
    {
        OFFSET 0.0 23.415491104125977 0.0
        CHANNELS 3 Zrotation Xrotation Yrotation
        JOINT Spine3
        {
            OFFSET 0.0 24.562986373901367 0.0
            CHANNELS 3 Zrotation Xrotation Yrotation
            JOINT Neck
            {
                OFFSET 0.0 10.705317497253418 0.0
                CHANNELS 3 Zrotation Xrotation Yrotation
                End Site
                {
                    OFFSET 0.0 4.2821269035339355 0.0
                }
            }
            JOINT LeftArm
            {
                OFFSET 12.609672546386719 0.0 0.0
                CHANNELS 3 Zrotation Xrotation Yrotation
                JOINT LeftForeArm
                {
                    OFFSET 25.73038101196289 0.0 0.0
                    CHANNELS 3 Zrotation Xrotation Yrotation
                    JOINT LeftHand
                    {
                        OFFSET 18.84522247314453 0.0 0.0
                        CHANNELS 3 Zrotation Xrotation Yrotation
                        End Site
                        {
                            OFFSET 7.538088798522949 0.0 0.0
                        }
                    }
                }
            }
            JOINT RightArm
            {
                OFFSET -12.609672546386719 0.0 0.0
                CHANNELS 3 Zrotation Xrotation Yrotation
                JOINT RightForeArm
                {
                    OFFSET -25.73038101196289 0.0 0.0
                    CHANNELS 3 Zrotation Xrotation Yrotation
                    JOINT RightHand
                    {
                        OFFSET -18.84522247314453 0.0 0.0
                        CHANNELS 3 Zrotation Xrotation Yrotation
                        End Site
                        {
                            OFFSET -7.538088798522949 0.0 0.0
                        }
                    }
                }
            }
        }
    }
}
MOTION
Frames: 11
Frame Time: 0.03333333333333333
0.00045869738096371293 88.34881591796875 -0.000974925933405757 2.0815015557615144 -6.911847904544467 -9.732869188410039 -4.880200318576595 15.48754570388467 0.039146822384413034 -1.1054167140187101 15.50399418062464 0.33486066647894647 3.4787316828507215e-16 6.212020862233431e-18 -3.727212517340059e-17 -0.03864204540213669 14.813713237139995 -1.2108131980504961 -1.1054403283227832 14.390759801373413 -0.863128484659682 -7.951386703658792e-16 6.896728590703373e-34 -9.93923337957349e-17 9.61667670364391 15.952505892241321 -4.0265189313990835 2.408999308629938e-07 -1.9804817576616446e-07 0.48014027560883765 3.2777432127948036 15.12386935185321 -176.10169347425116 147.3983467371655 36.966194276069274 -176.58207937448253 -8.485766363405835e-07 5.549873446763127e-08 58.3278917863244 1.5448672043175555e-31 2.7829853462805764e-15 -6.361109362927032e-15 -137.746447335347 -32.41365199675598 179.70548886631067 2.858087047773818e-06 1.7752670193961565e-06 -93.9978210787435 0.0 0.0 0.0
0.0005395100452005863 88.34892272949219 -0.0009730109013617039 2.8005462107778265 -7.064714184323965 -9.397201745451541 -5.740008866627887 15.487185630587005 0.10231287626260026 -1.368850736934945 15.740416711785588 0.47329749073141303 9.939233379573489e-17 -3.1805546814635164e-15 7.454425034680116e-17 -0.8169801965556691 14.847867955346253 -1.173703793058802 -1.2848098233763094 14.404071233148422 -0.7817689082728754 -3.975693351829396e-16 3.1805546814635168e-15 7.951386703658792e-16 10.422421513705284 15.53519470613972 -4.332639449283561 -6.134443626564689e-07 1.9351394263028576e-07 0.6930164017024985 1.9906996408425925 15.507947177271896 -176.4413543588247 148.89800339443272 41.725479564934716 -174.92691125162938 4.575097194963687e-07 -1.1273925132270487e-06 59.99266965972754 0.0 0.0 0.0 -138.12598694158584 -31.90845312616406 179.26918932877575 1.0929264114893902e-06 -3.7875080256991783e-07 -94.47023541550747 4.770832022195275e-15 2.648343778830095e-31 6.3611093629270335e-15
0.0005860284436494112 88.34892272949219 -0.0009829188929870725 3.5310229384506893 -6.970530538480722 -9.258602441534077 -6.448051383082981 15.305042663945004 0.16933826839238889 -1.6356005028264082 15.745558605576615 0.6134673482571489 3.9756933518293945e-16 -3.180554681463516e-15 -1.8884543421189626e-15 -1.75812065424865 14.61085153529243 -1.031136697439056 -1.775708103794628 14.494926282667654 -0.5455846142072053 2.4828222926532145e-32 -3.1805546814635164e-15 8.94531004161614e-16 11.185841674086756 15.076648581156018 -4.549335564830189 1.3902721070771044e-07 -1.958822639261283e-07 1.0465390955807223 0.9975878553454687 15.951822798888202 -176.85837591726582 150.25303598834057 46.329078686595956 -173.75203565842529 1.4219047293824936e-06 -2.4045664059497105e-06 61.7640771999516 0.0 0.0 6.361109362927033e-15 -138.31126628382347 -32.49336860271823 178.8218768506532 3.64402650763332e-06 -1.5165209001995421e-06 -94.50547680392935 6.361109362927033e-15 3.531125038440127e-31 6.361109362927033e-15
0.0005874232738278806 88.3488998413086 -0.0010120449587702751 4.309466592905332 -6.98588707091816 -9.167656459829645 -7.411628461086704 15.169751784281608 0.25366392573535274 -1.9702092503542254 15.642444804341725 0.7852792893201939 6.344990303447103e-32 3.1805546814635168e-15 -2.2860236773019026e-15 -2.6433591855676837 14.350081506724617 -0.9513914074201067 -2.135594593437182 14.555837081680902 -0.3978175649948683 3.975693351829396e-16 2.4848083448933725e-17 -3.975693351829396e-16 11.819495788961305 14.438871728747365 -4.7084113336178905 7.068225441522519e-08 5.655393456388942e-07 1.2853996688521625 -0.20388482212856643 16.497112742677604 -177.1885707181295 150.59271838152796 52.46847667021058 -171.27374656513507 -5.710557299953942e-07 1.593782655759953e-06 63.972752345331976 3.180554681463516e-15 -6.361109362927032e-15 1.7655625192200634e-31 -138.8314955688174 -33.35088138824033 178.57116476849964 -4.640380147379981e-06 -1.0467838498469972e-06 -94.98432776162946 3.1805546814635168e-15 6.3611093629270335e-15 -6.3611093629270335e-15
0.0005649414379149675 88.34886932373047 -0.001046203076839447 5.280820005964978 -6.972803955006279 -9.122625742034959 -8.590484044009647 15.073997553430061 0.33465850146531184 -2.0804886829240647 15.854643437033012 0.9097571869342513 3.9756933518293955e-16 2.4848083448933725e-17 4.47265502080807e-16 -3.8081448098836677 14.08532013689545 -0.8603349758213201 -2.6622439607708444 14.856544616745952 -0.19651350162930342 5.963540027744094e-16 1.034509288605506e-33 1.987846675914698e-16 12.12011155365503 13.951480974022124 -4.8642720039746905 -1.2231997358263882e-06 -6.054364159788056e-07 1.48223899235976 -1.4686109313916302 16.768024786044634 -176.8705481255432 150.73218887357746 57.92107855255228 -167.7039132277154 -7.112157603707873e-07 6.3847550825471254e-06 65.35064776803878 -3.1805546814635168e-15 1.590277340731758e-15 1.2722218725854067e-14 -139.46689147888975 -34.54627807123608 177.7825667707557 3.570314914690623e-07 -3.5764047256513424e-06 -96.28180057525665 -3.1805546814635168e-15 0.0 0.0
0.0005307552637532353 88.34886169433594 -0.0011035812785848975 6.1342115317550485 -7.087780548508164 -9.399560268884358 -9.977584398144742 15.21752120439971 0.4629880996704662 -1.7240689580504467 15.721987232613865 0.9300033279969256 0.0 0.0 1.9878466759146977e-16 -4.77947195609259 14.164775944779159 -0.8506411833820878 -3.24035258267122 14.85694661294962 -0.03308249700976676 5.379448300748631e-32 3.1805546814635168e-15 -1.9381505090168305e-15 12.474130984229658 13.48739999346239 -5.03840188874222 8.442016054361336e-07 7.745565309251117e-08 1.59464578345002 -2.6203683553501484 16.921409431332915 -176.97486553588155 150.2516872366428 63.32640431350016 -163.62034933576493 7.624130464897881e-07 -6.575213346201379e-07 67.58991064660323 9.541664044390549e-15 -3.1805546814635164e-15 2.648343778830095e-31 -140.06420755846824 -35.313699644492345 176.7102250128874 1.2841227670377368e-06 -1.8233220239783842e-06 -97.56584126614374 6.361109362927033e-15 -3.531125038440127e-31 -6.361109362927033e-15
0.0004464925150386989 88.3488998413086 -0.001178910257294774 7.056886801782676 -7.097499887794109 -9.625336368277082 -11.324203483160856 14.97850975217973 0.5954212654069021 -1.4716161750021208 15.926991718490113 1.0158759450455748 3.663887063811167e-34 2.4848083448933722e-17 -1.689669674527493e-15 -5.894079108203222 13.980866797033912 -0.7661990150096313 -3.574526013929674 15.075696666767554 0.12971541126410768 2.694034605743505e-36 -1.2424041724466862e-17 2.4848083448933725e-17 12.959311993225658 13.157759504450704 -5.255055014728174 1.2607703213429993e-06 -7.083583723335844e-07 2.0900377215876924 -3.8859089418589097 16.455347548353654 -176.4784463499147 147.25736829739753 68.02919409566167 -157.53872847518625 1.6611488973116811e-06 -1.6048673462178277e-06 70.56198245715844 5.29668755766019e-31 9.541664044390549e-15 -6.361109362927033e-15 -141.11909266619023 -36.25085198561414 175.60304594566 4.201472355228861e-06 -2.6820658262953778e-06 -99.02714494515129 3.1805546814635168e-15 0.0 0.0
0.00036912105861119926 88.34896087646484 -0.0012445234460756183 7.956340877537207 -7.248751039926764 -10.221441404360283 -12.791798751410324 14.647739465827774 0.7291167100466929 -1.2816159849826838 16.261473268747164 1.1411531813129063 0.0 0.0 -5.963540027744094e-16 -7.014259825391327 13.643944655474707 -0.6943082177897693 -4.214089945733647 15.158125432810888 0.35469440142536585 1.7393658414253605e-16 -3.960230870442952e-34 -2.6090487621380407e-16 13.0429424165447 13.092098042446933 -5.485773087197631 -5.446254166866505e-07 -7.062411518937016e-07 2.6206820084064057 -5.032853230584106 16.217307618709068 -177.31112870932267 141.45073790218802 72.34032439390153 -149.1454986753841 -7.660809919139837e-07 4.470855275197157e-06 74.6326600353274 3.531125038440127e-31 6.361109362927033e-15 -6.361109362927033e-15 -142.51712576911618 -37.7300509126332 174.03866884942246 -1.7423003884466597e-06 1.0185610616747625e-06 -99.93749275684759 3.1805546814635168e-15 -6.3611093629270335e-15 6.3611093629270335e-15
0.00034888944355770946 88.34902954101562 -0.0012763601262122393 8.523803027465377 -7.147454270288942 -10.1709611179666 -13.465642180767077 14.237132442068834 0.7111225333211391 -1.3894408319625629 16.60798321542866 1.1993057930464708 0.0 0.0 9.939233379573492e-17 -7.468618258649309 13.361520785184306 -0.7296545366599235 -4.757924367332592 15.413099226073742 0.4492226149700306 7.45442503468012e-17 4.08146242770141e-34 6.274141070855767e-16 13.426576901926392 13.051633708879002 -5.748580193523715 1.0790219966390813e-07 -5.815445184425093e-07 2.832414115149764 -5.82670848180676 15.887258456500756 -178.8679712216841 129.92632243135353 74.47711678851095 -134.90109804942952 3.043191931216517e-06 -2.011435989146541e-06 77.40860083667357 -6.3611093629270335e-15 0.0 0.0 -143.7855131827548 -37.99097123834645 172.3475303918561 -4.5818842016501773e-07 2.01756917079805e-06 -100.9093949279359 0.0 -6.3611093629270335e-15 0.0
0.00030756863998249173 88.34913635253906 -0.001323007745668292 8.961973424769965 -7.090523245592102 -10.430499252243175 -14.325849454685537 13.685286304210415 0.7691436856244274 -1.2712856482914332 16.99077342513775 1.2955276161596416 -3.975693351829396e-16 -6.896728590703373e-34 1.987846675914698e-16 -8.01902232579547 13.237118610139374 -0.7122910983163162 -5.292448431787312 15.606644337785141 0.610639450203846 9.93923337957349e-17 -3.16813063973905e-15 3.4787316828507215e-16 13.733368415065298 12.985150824761183 -5.937180816551729 -2.3760741006626516e-07 2.497589079527516e-07 2.7556447481636273 -6.3032483169738365 16.21584195547657 179.76784803698845 119.52954866842047 74.62386324973573 -121.27677157557812 2.9450970341472724e-06 -3.4877451619565855e-06 80.65347026925326 -6.3611093629270335e-15 7.062250076880254e-31 -1.2722218725854067e-14 -144.7156723336968 -37.63435728300059 170.8239179240783 -2.4921058981473514e-06 -8.797583833310155e-07 -101.26935560239687 3.1805546814635168e-15 6.3611093629270335e-15 -1.7655625192200634e-31
0.0002448247978463769 88.3492431640625 -0.0013717676047235727 9.223528737899809 -7.137992645092759 -11.107045685000116 -15.121306240734981 12.965263554237614 0.8274756301777172 -0.9345617427321515 17.638604234510996 1.3727914339688687 3.975693351829396e-16 -3.1805546814635168e-15 -2.981770013872047e-16 -8.607418907209546 13.168601813940352 -0.656843986165678 -5.595062048278137 15.915554467241032 0.7661482530191032 -3.975693351829397e-16 3.1805546814635176e-15 6.212020862233433e-16 14.06704354648607 13.183850316826913 -6.216972177505241 6.228068069585363e-07 -4.528875514566239e-07 2.871694495585348 -6.109001205588307 16.09928302372702 179.96518691359128 115.78977366092546 72.92370365477764 -113.51925113123264 2.5301399282383823e-06 -1.9902118774594567e-06 83.7835681134482 -6.3611093629270335e-15 3.531125038440127e-31 -6.3611093629270335e-15 -145.93172584288098 -37.905428687320274 169.00709087327036 4.206888284727342e-06 4.128967582616084e-06 -102.06238159134708 0.0 -6.3611093629270335e-15 0.0
